<svg width="512" height="512" viewBox="0 0 512 512" fill="none" xmlns="http://www.w3.org/2000/svg">
<path d="M274.552 259.2C282.478 255.05 288.785 248.363 292.463 240.207C296.141 232.052 296.979 222.898 294.843 214.21C292.706 205.522 287.718 197.801 280.677 192.281C273.636 186.762 264.947 183.762 256 183.762C247.053 183.762 238.364 186.762 231.323 192.281C224.282 197.801 219.294 205.522 217.157 214.21C215.021 222.898 215.859 232.052 219.537 240.207C223.215 248.363 229.522 255.05 237.448 259.2C226.512 263.048 217.039 270.192 210.332 279.648C203.626 289.104 200.016 300.407 200 312C200 314.122 200.843 316.157 202.343 317.657C203.843 319.157 205.878 320 208 320H304C306.122 320 308.157 319.157 309.657 317.657C311.157 316.157 312 314.122 312 312C311.984 300.407 308.374 289.104 301.668 279.648C294.961 270.192 285.488 263.048 274.552 259.2ZM256 200C260.747 200 265.387 201.408 269.334 204.045C273.28 206.682 276.357 210.43 278.173 214.816C279.99 219.201 280.465 224.027 279.539 228.682C278.613 233.338 276.327 237.614 272.971 240.971C269.614 244.327 265.338 246.613 260.682 247.539C256.027 248.465 251.201 247.99 246.816 246.173C242.43 244.357 238.682 241.28 236.045 237.334C233.408 233.387 232 228.747 232 224C232 217.635 234.529 211.53 239.029 207.029C243.53 202.529 249.635 200 256 200ZM216.8 304C218.636 294.958 223.542 286.828 230.686 280.989C237.83 275.15 246.773 271.96 256 271.96C265.227 271.96 274.17 275.15 281.314 280.989C288.458 286.828 293.364 294.958 295.2 304H216.8Z" fill="url(#paint0_linear_201_152)"/>
<path d="M424 344C405.55 343.986 387.667 350.379 373.408 362.088L334.896 323.576C350.116 305.854 358.89 283.503 359.792 260.16L441.488 257.136C443.766 264.521 448.658 270.823 455.247 274.861C461.836 278.9 469.671 280.398 477.286 279.077C484.9 277.755 491.772 273.704 496.615 267.681C501.458 261.658 503.94 254.077 503.597 246.356C503.253 238.636 500.107 231.305 494.749 225.736C489.39 220.167 482.185 216.742 474.484 216.102C466.782 215.462 459.111 217.651 452.906 222.259C446.702 226.867 442.389 233.578 440.776 241.136L359.272 244.152C357.526 229.003 352.471 214.424 344.463 201.446C336.456 188.469 325.693 177.411 312.936 169.056L328.224 141.264C339.603 145.236 352.06 144.788 363.124 140.008C374.188 135.228 383.053 126.466 387.961 115.458C392.869 104.45 393.463 91.9998 389.624 80.575C385.785 69.1502 377.793 59.5847 367.234 53.7745C356.674 47.9642 344.317 46.3334 332.611 49.2051C320.906 52.0768 310.706 59.2415 304.035 69.2792C297.363 79.3168 294.706 91.4947 296.59 103.399C298.475 115.303 304.763 126.065 314.208 133.552L298.912 161.36C280.924 153.123 260.948 150.226 241.361 153.014C221.773 155.802 203.399 164.158 188.424 177.088L149.912 138.576C162.925 122.661 169.323 102.353 167.783 81.8525C166.242 61.3522 156.882 42.2282 141.637 28.4362C126.392 14.6441 106.429 7.23914 85.8772 7.753C65.3256 8.26685 45.7576 16.6602 31.2209 31.1969C16.6842 45.7336 8.29087 65.3015 7.77701 85.8531C7.26316 106.405 14.6681 126.368 28.4602 141.613C42.2523 156.858 61.3763 166.218 81.8765 167.759C102.377 169.299 122.685 162.901 138.6 149.888L177.112 188.4C166.921 200.166 159.533 214.091 155.504 229.126C151.476 244.162 150.912 259.915 153.856 275.2L83.592 294.112C79.1381 285.469 71.6665 278.762 62.5951 275.263C53.5236 271.765 43.4833 271.717 34.3794 275.131C25.2754 278.544 17.7412 285.181 13.2064 293.782C8.67153 302.382 7.45153 312.348 9.77786 321.789C12.1042 331.229 17.815 339.487 25.8267 344.996C33.8384 350.505 43.5935 352.881 53.2411 351.673C62.8887 350.466 71.7575 345.759 78.1647 338.446C84.5719 331.133 88.0717 321.723 88 312C88 311.2 87.808 310.4 87.752 309.6L158.064 290.672C166.158 313.398 181.873 332.621 202.536 345.072L185.6 378.88C172.145 374.374 157.483 375.132 144.565 381.001C131.646 386.87 121.431 397.415 115.974 410.513C110.517 423.611 110.224 438.289 115.155 451.594C120.085 464.899 129.872 475.843 142.546 482.223C155.22 488.602 169.84 489.944 183.464 485.978C197.087 482.012 208.703 473.033 215.973 460.848C223.243 448.662 225.627 434.175 222.645 420.303C219.664 406.431 211.538 394.203 199.904 386.08L216.8 352.272C234.468 359.515 253.796 361.725 272.643 358.657C291.489 355.588 309.118 347.362 323.576 334.888L362.088 373.4C350.609 387.465 344.257 405.017 344.078 423.171C343.899 441.325 349.902 458.999 361.102 473.287C372.302 487.576 388.03 497.628 405.701 501.79C423.372 505.952 441.934 503.977 458.333 496.19C474.733 488.402 487.994 475.266 495.936 458.94C503.879 442.615 506.029 424.073 502.034 406.364C498.038 388.654 488.136 372.831 473.954 361.497C459.772 350.163 442.155 343.992 424 344ZM472 232C475.165 232 478.258 232.938 480.889 234.696C483.52 236.455 485.571 238.953 486.782 241.877C487.993 244.801 488.31 248.018 487.693 251.121C487.075 254.225 485.551 257.076 483.314 259.314C481.076 261.551 478.225 263.075 475.121 263.693C472.018 264.31 468.801 263.993 465.877 262.782C462.953 261.571 460.455 259.52 458.697 256.889C456.938 254.258 456 251.165 456 248C456 243.757 457.686 239.687 460.686 236.686C463.687 233.686 467.757 232 472 232ZM344 64C350.329 64 356.516 65.8768 361.778 69.393C367.041 72.9092 371.142 77.9069 373.564 83.7541C375.986 89.6014 376.62 96.0355 375.385 102.243C374.15 108.45 371.103 114.152 366.627 118.627C362.152 123.103 356.45 126.15 350.243 127.385C344.036 128.62 337.601 127.986 331.754 125.564C325.907 123.142 320.909 119.041 317.393 113.778C313.877 108.516 312 102.329 312 96C312 87.5131 315.371 79.3737 321.373 73.3726C327.374 67.3714 335.513 64 344 64ZM48 336C43.2533 336 38.6131 334.592 34.6663 331.955C30.7196 329.318 27.6434 325.57 25.8269 321.184C24.0104 316.799 23.5351 311.973 24.4612 307.318C25.3872 302.662 27.673 298.386 31.0295 295.029C34.3859 291.673 38.6623 289.387 43.3179 288.461C47.9734 287.535 52.799 288.01 57.1844 289.827C61.5698 291.643 65.3181 294.72 67.9553 298.666C70.5924 302.613 72 307.253 72 312C72 318.365 69.4715 324.47 64.9706 328.971C60.4697 333.471 54.3652 336 48 336ZM208 432C208 439.911 205.654 447.645 201.259 454.223C196.864 460.801 190.616 465.928 183.307 468.955C175.998 471.983 167.956 472.775 160.196 471.231C152.437 469.688 145.31 465.878 139.716 460.284C134.122 454.69 130.312 447.563 128.769 439.804C127.225 432.044 128.017 424.002 131.045 416.693C134.072 409.384 139.199 403.136 145.777 398.741C152.355 394.346 160.089 392 168 392C178.605 392.013 188.772 396.231 196.27 403.73C203.769 411.228 207.987 421.395 208 432ZM24 88C23.9752 77.6013 26.4845 67.3531 31.311 58.1423C36.1374 48.9314 43.1356 41.0354 51.6999 35.1373C60.2642 29.2393 70.1367 25.5169 80.4631 24.2924C90.7895 23.0678 101.259 24.3779 110.965 28.1093C120.671 31.8407 129.322 37.881 136.169 45.7075C143.016 53.5341 147.852 62.9111 150.26 73.0272C152.668 83.1434 152.575 93.6939 149.988 103.766C147.402 113.838 142.4 123.128 135.416 130.832C135.785 129.933 135.983 128.972 136 128C136.02 121.694 134.789 115.447 132.378 109.62C129.966 103.794 126.423 98.5033 121.952 94.056C118.764 90.8682 115.145 88.1431 111.2 85.96C115.524 81.4268 118.422 75.7242 119.535 69.5592C120.648 63.3943 119.927 57.0383 117.461 51.2793C114.996 45.5204 110.894 40.6117 105.665 37.1622C100.435 33.7126 94.3086 31.8738 88.044 31.8738C81.7794 31.8738 75.6526 33.7126 70.4233 37.1622C65.1941 40.6117 61.0923 45.5204 58.6267 51.2793C56.1611 57.0383 55.4401 63.3943 56.5531 69.5592C57.6662 75.7242 60.5642 81.4268 64.888 85.96C57.3562 90.0978 51.0733 96.1819 46.6954 103.577C42.3176 110.972 40.0053 119.406 40 128C40.0163 128.962 40.206 129.913 40.56 130.808C29.9113 119.093 24.0075 103.832 24 88ZM88 80C84.8355 80 81.7421 79.0616 79.1109 77.3035C76.4797 75.5454 74.429 73.0466 73.2179 70.1229C72.0069 67.1993 71.6901 63.9823 72.3075 60.8786C72.9248 57.7749 74.4487 54.9239 76.6863 52.6863C78.924 50.4487 81.7749 48.9248 84.8786 48.3074C87.9823 47.6901 91.1993 48.0069 94.123 49.2179C97.0466 50.4289 99.5454 52.4797 101.304 55.1109C103.062 57.7421 104 60.8355 104 64C104 68.2435 102.314 72.3131 99.3137 75.3137C96.3131 78.3143 92.2435 80 88 80ZM88 96C95.0943 96 101.987 98.3574 107.596 102.702C113.205 107.046 117.21 113.131 118.984 120H57.008C58.7906 113.134 62.8 107.054 68.4082 102.711C74.0165 98.368 80.9068 96.0078 88 96ZM45.2 135.44C46.0916 135.795 47.0404 135.985 48 136H128C128.974 135.987 129.937 135.791 130.84 135.424C119.131 146.077 103.87 151.98 88.04 151.98C72.2101 151.98 56.9491 146.077 45.24 135.424L45.2 135.44ZM168 256C168 238.595 173.161 221.581 182.831 207.11C192.5 192.638 206.244 181.359 222.324 174.699C238.404 168.038 256.098 166.295 273.168 169.691C290.238 173.086 305.918 181.468 318.225 193.775C330.532 206.082 338.914 221.762 342.309 238.832C345.705 255.902 343.962 273.596 337.301 289.676C330.641 305.756 319.362 319.5 304.89 329.169C290.419 338.839 273.405 344 256 344C232.669 343.972 210.302 334.692 193.805 318.195C177.308 301.698 168.028 279.331 168 256ZM381.2 471.44C382.092 471.795 383.04 471.985 384 472H464C464.974 471.987 465.937 471.791 466.84 471.424C455.131 482.077 439.87 487.98 424.04 487.98C408.21 487.98 392.949 482.077 381.24 471.424L381.2 471.44ZM424 416C420.836 416 417.742 415.062 415.111 413.304C412.48 411.545 410.429 409.047 409.218 406.123C408.007 403.199 407.69 399.982 408.307 396.879C408.925 393.775 410.449 390.924 412.686 388.686C414.924 386.449 417.775 384.925 420.879 384.307C423.982 383.69 427.199 384.007 430.123 385.218C433.047 386.429 435.545 388.48 437.304 391.111C439.062 393.742 440 396.835 440 400C440 404.243 438.314 408.313 435.314 411.314C432.313 414.314 428.243 416 424 416ZM424 432C431.094 432 437.988 434.357 443.596 438.702C449.205 443.046 453.21 449.131 454.984 456H393.008C394.791 449.134 398.8 443.054 404.408 438.711C410.017 434.368 416.907 432.008 424 432ZM471.408 466.832C471.78 465.933 471.981 464.973 472 464C472.02 457.694 470.789 451.447 468.378 445.62C465.966 439.794 462.423 434.503 457.952 430.056C454.764 426.868 451.145 424.143 447.2 421.96C451.524 417.427 454.422 411.724 455.535 405.559C456.648 399.394 455.927 393.038 453.461 387.279C450.996 381.52 446.894 376.612 441.665 373.162C436.435 369.713 430.309 367.874 424.044 367.874C417.779 367.874 411.653 369.713 406.423 373.162C401.194 376.612 397.092 381.52 394.627 387.279C392.161 393.038 391.44 399.394 392.553 405.559C393.666 411.724 396.564 417.427 400.888 421.96C393.356 426.098 387.073 432.182 382.695 439.577C378.318 446.972 376.005 455.406 376 464C376.016 464.962 376.206 465.913 376.56 466.808C368.241 457.627 362.766 446.228 360.799 433.995C358.833 421.763 360.459 409.222 365.481 397.896C370.502 386.569 378.704 376.944 389.089 370.188C399.475 363.432 411.598 359.836 423.988 359.836C436.378 359.836 448.501 363.432 458.887 370.188C469.272 376.944 477.474 386.569 482.495 397.896C487.517 409.222 489.143 421.763 487.177 433.995C485.21 446.228 479.735 457.627 471.416 466.808L471.408 466.832Z" fill="url(#paint1_linear_201_152)"/>
<defs>
<linearGradient id="paint0_linear_201_152" x1="256" y1="183.762" x2="256" y2="320" gradientUnits="userSpaceOnUse">
<stop stop-color="#FF7DF2"/>
<stop offset="1" stop-color="#FF275B"/>
</linearGradient>
<linearGradient id="paint1_linear_201_152" x1="255.873" y1="7.72794" x2="255.873" y2="503.92" gradientUnits="userSpaceOnUse">
<stop stop-color="#FF7DF2"/>
<stop offset="1" stop-color="#FF275B"/>
</linearGradient>
</defs>
</svg>
