<svg width="512" height="512" viewBox="0 0 512 512" fill="none" xmlns="http://www.w3.org/2000/svg">
<g clip-path="url(#clip0_201_7)">
<path d="M447.824 317.766C454.277 297.848 457.553 277.074 457.553 255.906C457.553 234.816 454.301 214.117 447.887 194.262C461.992 188.965 474.817 180.484 485.465 169.207C503.867 149.727 513.577 124.242 512.812 97.457C511.227 42.157 464.952 -1.53498 409.645 0.0430153C382.854 0.809015 357.973 11.961 339.57 31.445C330.277 41.285 323.207 52.656 318.578 64.953C298.718 58.543 278.02 55.289 256.922 55.289C235.812 55.289 215.098 58.551 195.227 64.969C180.895 27.043 144.215 1.52588e-05 101.332 1.52588e-05C46.0075 1.52588e-05 0.999512 45.008 0.999512 100.328C0.999512 143.207 28.0465 179.883 65.9725 194.211C59.5505 214.086 56.2925 234.801 56.2925 255.906C56.2925 277.074 59.5695 297.848 66.0225 317.766C28.0695 332.082 0.999512 368.773 0.999512 411.672C0.999512 426.773 4.27251 441.293 10.7295 454.824C11.1536 455.713 11.7486 456.51 12.4807 457.169C13.2128 457.828 14.0676 458.337 14.9962 458.665C15.9248 458.994 16.9091 459.137 17.8928 459.085C18.8766 459.033 19.8405 458.788 20.7295 458.364C22.5239 457.506 23.9045 455.971 24.5683 454.096C25.232 452.221 25.1245 450.16 24.2695 448.364C18.7805 436.864 15.9995 424.52 15.9995 411.672C15.9995 364.625 54.2805 326.348 101.332 326.348C148.387 326.348 186.668 364.625 186.668 411.672C186.668 458.722 148.387 497 101.332 497C79.8715 497 59.3585 489.004 43.5775 474.484C40.5275 471.68 35.7805 471.879 32.9795 474.926C32.3125 475.651 31.7948 476.5 31.4561 477.425C31.1173 478.349 30.964 479.332 31.0051 480.316C31.0461 481.3 31.2807 482.267 31.6953 483.16C32.1099 484.053 32.6965 484.856 33.4215 485.523C51.9795 502.598 76.0975 512 101.332 512C144.277 512 181.004 484.875 195.289 446.863C215.137 453.27 235.832 456.523 256.922 456.523C278.016 456.523 298.715 453.27 318.562 446.867C332.849 484.88 369.575 512 412.52 512C467.844 512 512.852 466.992 512.852 411.672C512.852 368.773 485.782 332.078 447.824 317.766ZM350.477 41.742C366.125 25.172 387.293 15.688 410.078 15.035C410.903 15.0116 411.729 15 412.555 15C458.485 15 496.496 51.684 497.816 97.883C498.469 120.664 490.21 142.336 474.562 158.91C458.913 175.48 437.746 184.965 414.961 185.617C414.135 185.64 413.309 185.652 412.484 185.652C366.554 185.652 328.543 148.969 327.223 102.77C326.566 79.988 334.828 58.313 350.477 41.742ZM314.355 432.461C295.875 438.469 276.59 441.523 256.922 441.523C237.262 441.523 217.977 438.469 199.496 432.461C200.94 425.625 201.668 418.658 201.668 411.671C201.668 356.351 156.656 311.348 101.332 311.348C94.1635 311.348 87.1715 312.109 80.4255 313.543C74.3665 294.996 71.2925 275.641 71.2925 255.906C71.2925 236.234 74.3515 216.941 80.3705 198.441C87.2603 199.913 94.2862 200.654 101.332 200.652C118.52 200.652 135.477 196.23 150.379 187.867C153.989 185.84 155.273 181.27 153.246 177.657C151.219 174.044 146.648 172.762 143.036 174.789C130.371 181.895 115.949 185.652 101.332 185.652C54.2765 185.652 15.9995 147.375 15.9995 100.324C15.9995 53.277 54.2805 15 101.332 15C148.387 15 186.668 53.277 186.668 100.328C186.668 120.012 179.805 139.215 167.344 154.406C164.714 157.606 165.184 162.332 168.387 164.961C169.925 166.222 171.9 166.82 173.879 166.625C175.859 166.429 177.679 165.455 178.941 163.918C193.594 146.055 201.668 123.468 201.668 100.324C201.668 93.141 200.898 86.129 199.457 79.367C217.953 73.347 237.25 70.289 256.922 70.289C276.59 70.289 295.879 73.344 314.367 79.355C312.713 87.1905 311.995 95.1944 312.227 103.199C313.785 157.523 358.473 200.656 412.48 200.652C419.537 200.653 426.575 199.917 433.48 198.457C439.496 216.949 442.555 236.242 442.555 255.907C442.555 275.641 439.477 294.997 433.422 313.543C426.55 312.081 419.545 311.345 412.52 311.348C357.194 311.348 312.188 356.352 312.188 411.672C312.188 418.801 312.938 425.754 314.355 432.461ZM412.52 497C365.465 497 327.188 458.723 327.188 411.676C327.188 364.625 365.465 326.348 412.52 326.348C459.574 326.348 497.852 364.625 497.852 411.676C497.852 458.723 459.574 497 412.52 497Z" fill="url(#paint0_linear_201_7)"/>
<path d="M152.401 56.055C151.139 55.196 149.645 54.7428 148.118 54.7561C146.592 54.7693 145.106 55.2483 143.858 56.129C141.312 57.9245 138.574 59.4324 135.695 60.625C125.391 52.562 110.456 52.656 100.226 61.551C94.9493 66.1327 91.5884 72.5317 90.8115 79.477C85.319 78.6598 80.0504 76.7323 75.3273 73.8121C70.6041 70.892 66.5252 67.0403 63.3395 62.492C62.5756 61.4075 61.5383 60.5446 60.3328 59.991C59.1274 59.4374 57.7969 59.2128 56.4765 59.34C55.1551 59.468 53.8914 59.9444 52.8145 60.7206C51.7375 61.4968 50.8858 62.545 50.3465 63.758C50.1325 64.242 45.0855 75.773 45.7295 89.887C46.2225 100.687 50.0855 114.609 64.1755 125.359C59.0864 127.007 53.7467 127.745 48.4015 127.539C46.7166 127.474 45.0589 127.978 43.6958 128.971C42.3327 129.963 41.3437 131.386 40.8883 133.009C40.433 134.633 40.5378 136.362 41.1859 137.919C41.8339 139.476 42.9875 140.768 44.4605 141.589C56.2265 148.125 68.8315 151.399 81.1475 151.399C92.9795 151.399 104.542 148.375 114.831 142.324C127.733 134.734 137.109 123.114 142.199 108.922C142.359 108.562 142.492 108.188 142.598 107.801C145.215 100.094 146.585 91.652 146.585 82.699C146.585 82.309 146.574 81.914 146.559 81.523C150.849 76.4645 153.901 70.4753 155.473 64.031C155.832 62.5471 155.731 60.9887 155.183 59.5637C154.634 58.1387 153.664 56.9147 152.402 56.055H152.401ZM131.354 80.359C131.503 81.141 131.581 81.949 131.581 82.723C131.581 90.074 130.487 96.883 128.405 103.035C128.292 103.32 128.197 103.613 128.12 103.91C124.226 114.809 117.136 123.563 107.226 129.395C98.1565 134.735 87.7465 137.008 77.1365 136.238C79.5677 135.035 81.9141 133.667 84.1595 132.145C85.2656 131.393 86.1507 130.359 86.7235 129.151C87.2962 127.942 87.5358 126.602 87.4175 125.27C87.2986 123.938 86.8256 122.661 86.0474 121.573C85.2691 120.485 84.214 119.625 82.9915 119.082C68.9875 112.859 61.4995 102.961 60.7375 89.668C60.5983 87.0883 60.69 84.5014 61.0115 81.938C71.3275 90.558 84.5425 95.262 98.3355 94.906C100.291 94.8562 102.149 94.0446 103.514 92.6443C104.88 91.244 105.644 89.3658 105.644 87.41V82.758C105.617 80.8871 105.999 79.0327 106.763 77.3249C107.527 75.617 108.656 74.0969 110.069 72.871C115.429 68.211 123.577 68.777 128.237 74.137C129.153 75.1884 130.344 75.9635 131.675 76.375C131.212 77.6499 131.101 79.0264 131.355 80.359H131.354ZM387.839 106.242H398.472V150.965C398.472 152.954 399.263 154.862 400.669 156.268C402.076 157.675 403.983 158.465 405.972 158.465C407.962 158.465 409.869 157.675 411.276 156.268C412.682 154.862 413.472 152.954 413.472 150.965V106.242H425.054C429.194 106.242 432.554 102.882 432.554 98.742C432.554 94.602 429.194 91.242 425.054 91.242H413.472V70.258C413.472 63.055 419.335 57.191 426.542 57.191H436.252C440.394 57.191 443.752 53.832 443.752 49.691C443.752 47.7019 442.962 45.7942 441.556 44.3877C440.149 42.9812 438.242 42.191 436.252 42.191H426.542C411.065 42.191 398.472 54.781 398.472 70.258V91.242H387.839C383.699 91.242 380.339 94.602 380.339 98.742C380.339 102.882 383.699 106.242 387.839 106.242ZM84.3155 450.46C86.1015 450.46 87.8855 450 89.4755 449.082L140.526 419.594C142.094 418.686 143.395 417.383 144.301 415.814C145.206 414.246 145.684 412.467 145.686 410.656C145.686 406.984 143.71 403.559 140.526 401.723L89.4765 372.234C87.9076 371.33 86.1287 370.854 84.318 370.854C82.5073 370.854 80.7283 371.33 79.1595 372.234C77.5917 373.141 76.2896 374.445 75.3834 376.013C74.4772 377.582 73.9986 379.361 73.9955 381.172V440.145C73.9955 443.82 75.9755 447.246 79.1595 449.082C80.7265 449.988 82.5053 450.464 84.3155 450.461V450.46ZM88.9955 389.281L126.011 410.661L88.9955 432.039V389.281ZM445.109 358.555H379.929C368.609 358.555 359.397 367.765 359.397 379.09V444.258C359.397 455.582 368.608 464.793 379.929 464.793H445.109C456.429 464.793 465.639 455.582 465.639 444.258V379.09C465.639 367.766 456.429 358.555 445.109 358.555ZM450.639 444.258C450.639 445.725 450.056 447.132 449.02 448.169C447.983 449.207 446.576 449.791 445.109 449.793H379.929C378.462 449.792 377.055 449.208 376.018 448.17C374.981 447.132 374.398 445.725 374.397 444.258V379.09C374.399 377.623 374.982 376.216 376.019 375.179C377.056 374.141 378.462 373.557 379.929 373.555H445.109C446.576 373.558 447.982 374.142 449.019 375.179C450.055 376.217 450.638 377.623 450.639 379.09V444.258Z" fill="url(#paint1_linear_201_7)"/>
<path d="M412.52 389.004C400.02 389.004 389.848 399.176 389.848 411.676C389.848 424.176 400.02 434.344 412.52 434.344C425.02 434.344 435.191 424.176 435.191 411.676C435.191 399.176 425.02 389.004 412.52 389.004ZM412.52 419.344C408.29 419.344 404.848 415.902 404.848 411.676C404.848 407.446 408.289 404.004 412.52 404.004C416.751 404.004 420.191 407.445 420.191 411.676C420.191 415.902 416.75 419.344 412.52 419.344ZM311.203 178.094C309.214 178.094 307.306 178.885 305.9 180.291C304.493 181.698 303.703 183.605 303.703 185.594V188.957C293.124 195.194 282.05 200.55 270.593 204.969C261.41 208.501 252.004 211.422 242.437 213.715C240.923 212.542 239.063 211.904 237.148 211.902H202.808C194.512 211.902 187.766 218.652 187.766 226.945V266.332C187.766 274.629 194.512 281.375 202.809 281.375H209.672L212.273 331.383C212.324 332.367 212.569 333.33 212.993 334.219C213.416 335.108 214.011 335.905 214.743 336.564C215.475 337.223 216.329 337.732 217.257 338.06C218.185 338.389 219.169 338.532 220.153 338.48C222.139 338.377 224.003 337.489 225.334 336.012C226.666 334.534 227.356 332.588 227.253 330.602L224.691 281.375H237.148C239.137 281.375 240.968 280.695 242.434 279.566C248.522 281.034 254.547 282.756 260.492 284.726C261.427 285.036 262.414 285.159 263.396 285.088C264.378 285.017 265.337 284.753 266.217 284.311C267.098 283.869 267.882 283.258 268.527 282.513C269.171 281.768 269.662 280.904 269.972 279.969C270.282 279.034 270.405 278.047 270.334 277.065C270.263 276.082 269.999 275.124 269.557 274.243C269.115 273.363 268.504 272.578 267.759 271.934C267.014 271.29 266.15 270.798 265.215 270.488C258.83 268.371 252.36 266.523 245.82 264.949V228.336C256.07 225.881 266.147 222.75 275.984 218.965C285.485 215.301 294.743 211.034 303.7 206.19V287.104C300.412 285.328 297.083 283.63 293.716 282.011C292.829 281.584 291.866 281.336 290.882 281.281C289.899 281.226 288.914 281.365 287.985 281.691C287.055 282.017 286.199 282.522 285.465 283.179C284.731 283.836 284.134 284.631 283.708 285.519C283.281 286.407 283.033 287.37 282.978 288.354C282.923 289.337 283.062 290.322 283.388 291.252C283.714 292.181 284.22 293.038 284.876 293.772C285.533 294.506 286.328 295.103 287.216 295.53C292.829 298.238 298.328 301.175 303.7 304.335V307.683C303.7 309.672 304.49 311.58 305.897 312.987C307.303 314.393 309.211 315.183 311.2 315.183C313.189 315.183 315.097 314.393 316.503 312.987C317.91 311.58 318.7 309.672 318.7 307.683V185.593C318.7 184.609 318.507 183.633 318.13 182.724C317.754 181.814 317.202 180.987 316.506 180.29C315.81 179.594 314.983 179.041 314.073 178.664C313.164 178.287 312.189 178.093 311.204 178.093L311.203 178.094ZM230.824 266.371L202.766 266.332L202.809 226.902H230.824V266.371Z" fill="url(#paint2_linear_201_7)"/>
</g>
<defs>
<linearGradient id="paint0_linear_201_7" x1="256.927" y1="1.52588e-05" x2="256.927" y2="512" gradientUnits="userSpaceOnUse">
<stop stop-color="#FF7DF2"/>
<stop offset="1" stop-color="#FF275B"/>
</linearGradient>
<linearGradient id="paint1_linear_201_7" x1="253.125" y1="42.191" x2="253.125" y2="464.793" gradientUnits="userSpaceOnUse">
<stop stop-color="#FF7DF2"/>
<stop offset="1" stop-color="#FF275B"/>
</linearGradient>
<linearGradient id="paint2_linear_201_7" x1="311.478" y1="178.093" x2="311.478" y2="434.344" gradientUnits="userSpaceOnUse">
<stop stop-color="#FF7DF2"/>
<stop offset="1" stop-color="#FF275B"/>
</linearGradient>
<clipPath id="clip0_201_7">
<rect width="512" height="512" fill="white"/>
</clipPath>
</defs>
</svg>
