<svg width="512" height="512" viewBox="0 0 512 512" fill="none" xmlns="http://www.w3.org/2000/svg">
<path d="M476.048 223.224C474.225 167.572 451.231 114.715 411.76 75.44C370.136 33.808 314.816 10.888 256 10.888C137.208 10.888 40.144 105.44 35.96 223.224C26.8003 227.281 19.0139 233.908 13.5444 242.301C8.07478 250.695 5.1568 260.494 5.144 270.512V328.608C5.15882 342.327 10.6152 355.48 20.3158 365.18C30.0165 374.881 43.1692 380.337 56.888 380.352C65.7642 380.341 74.2738 376.811 80.5502 370.534C86.8267 364.258 90.3574 355.748 90.368 346.872V252.24C90.368 234.904 77.072 220.768 60.168 219.088C66.408 116.472 151.832 34.888 256 34.888C308.416 34.888 357.704 55.32 394.8 92.416C428.864 126.48 448.8 170.88 451.8 219.096C434.912 220.792 421.64 234.92 421.64 252.24V346.864C421.64 364.344 435.144 378.568 452.248 380.048V403.96C452.233 416.908 447.083 429.321 437.926 438.476C428.77 447.631 416.356 452.779 403.408 452.792H367.24C364.802 445.683 360.198 439.516 354.076 435.157C347.953 430.798 340.62 428.466 333.104 428.488H295.824C290.472 428.488 285.336 429.624 280.632 431.816C274.333 434.726 268.998 439.377 265.256 445.22C261.514 451.062 259.521 457.854 259.512 464.792C259.512 474.504 263.296 483.624 270.152 490.448C273.512 493.836 277.512 496.522 281.919 498.351C286.326 500.18 291.052 501.116 295.824 501.104H333.104C348.56 501.104 362.184 491.112 367.264 476.792H403.408C443.576 476.792 476.248 444.12 476.248 403.96V375.776C485.353 371.696 493.086 365.072 498.516 356.701C503.946 348.331 506.842 338.57 506.856 328.592V270.496C506.856 249.424 494.168 231.28 476.048 223.224ZM66.36 252.24V346.864C66.36 352.088 62.112 356.344 56.88 356.344C49.5244 356.336 42.4726 353.41 37.2714 348.209C32.0702 343.007 29.1445 335.956 29.136 328.6V270.504C29.1445 263.148 32.0702 256.097 37.2714 250.895C42.4726 245.694 49.5244 242.768 56.88 242.76C62.112 242.76 66.36 247.016 66.36 252.24ZM345.144 467.368C344.548 470.123 343.028 472.592 340.837 474.365C338.646 476.139 335.915 477.111 333.096 477.12H295.816C292.536 477.12 289.456 475.84 287.104 473.488C285.959 472.352 285.052 470.999 284.434 469.509C283.816 468.019 283.5 466.421 283.504 464.808C283.512 461.546 284.813 458.42 287.12 456.114C289.427 453.808 292.554 452.51 295.816 452.504H333.096C336.376 452.504 339.456 453.776 341.8 456.128C344.12 458.44 345.4 461.528 345.4 464.808C345.408 465.688 345.312 466.568 345.144 467.368ZM482.856 328.6C482.848 335.956 479.922 343.007 474.721 348.209C469.519 353.41 462.468 356.336 455.112 356.344C452.598 356.342 450.188 355.342 448.411 353.565C446.634 351.788 445.634 349.378 445.632 346.864V252.24C445.632 247.016 449.88 242.76 455.112 242.76C462.468 242.768 469.519 245.694 474.721 250.895C479.922 256.097 482.848 263.148 482.856 270.504V328.6Z" fill="url(#paint0_linear_201_2)"/>
<path d="M333.704 332.736C347.185 332.721 360.11 327.359 369.643 317.827C379.175 308.294 384.537 295.369 384.552 281.888V178.28C384.552 164.728 379.256 151.96 369.64 142.344C360.024 132.728 347.264 127.432 333.704 127.432H178.296C164.815 127.447 151.89 132.809 142.357 142.341C132.825 151.874 127.463 164.799 127.448 178.28V281.888C127.463 295.369 132.825 308.294 142.357 317.827C151.89 327.359 164.815 332.721 178.296 332.736H179.248V359.584C179.232 362.862 179.865 366.111 181.109 369.145C182.353 372.178 184.185 374.935 186.499 377.257C188.812 379.58 191.562 381.422 194.591 382.678C197.619 383.934 200.866 384.579 204.144 384.576C207.42 384.583 210.664 383.929 213.682 382.655C216.701 381.381 219.432 379.512 221.712 377.16L266.376 332.736H333.704ZM252.976 312.224L204.64 360.296C204.424 360.52 204.264 360.688 203.808 360.488C203.256 360.264 203.256 359.904 203.256 359.584V320.736C203.256 317.553 201.992 314.501 199.741 312.251C197.491 310 194.439 308.736 191.256 308.736H178.304C171.186 308.728 164.362 305.896 159.329 300.863C154.296 295.83 151.464 289.006 151.456 281.888V178.28C151.464 171.162 154.296 164.338 159.329 159.305C164.362 154.272 171.186 151.44 178.304 151.432H333.712C340.864 151.432 347.592 154.232 352.68 159.312C357.768 164.4 360.56 171.136 360.56 178.28V281.888C360.552 289.006 357.72 295.83 352.687 300.863C347.654 305.896 340.83 308.728 333.712 308.736H261.44C258.264 308.736 255.224 309.992 252.976 312.224Z" fill="url(#paint1_linear_201_2)"/>
<path d="M197.704 214.296C187.944 214.296 180 222.248 180 232C180 241.752 187.952 249.704 197.704 249.704C207.472 249.704 215.424 241.752 215.424 232C215.424 222.248 207.48 214.296 197.704 214.296ZM255.992 214.296C246.232 214.296 238.288 222.248 238.288 232C238.288 241.752 246.24 249.704 255.992 249.704C265.768 249.704 273.712 241.752 273.712 232C273.712 222.248 265.768 214.296 255.992 214.296ZM314.28 214.296C304.52 214.296 296.576 222.248 296.576 232C296.576 241.752 304.528 249.704 314.28 249.704C324.048 249.704 332 241.752 332 232C332 222.248 324.048 214.296 314.28 214.296Z" fill="url(#paint2_linear_201_2)"/>
<defs>
<linearGradient id="paint0_linear_201_2" x1="256" y1="10.888" x2="256" y2="501.104" gradientUnits="userSpaceOnUse">
<stop stop-color="#FF7DF2"/>
<stop offset="1" stop-color="#FF275B"/>
</linearGradient>
<linearGradient id="paint1_linear_201_2" x1="256" y1="127.432" x2="256" y2="384.576" gradientUnits="userSpaceOnUse">
<stop stop-color="#FF7DF2"/>
<stop offset="1" stop-color="#FF275B"/>
</linearGradient>
<linearGradient id="paint2_linear_201_2" x1="256" y1="214.296" x2="256" y2="249.704" gradientUnits="userSpaceOnUse">
<stop stop-color="#FF7DF2"/>
<stop offset="1" stop-color="#FF275B"/>
</linearGradient>
</defs>
</svg>
